<svg width="48" height="48" viewBox="0 0 48 48" fill="none" xmlns="http://www.w3.org/2000/svg">
<path d="M34 15C34.9831 16.0114 37.5995 20 39 20M44 15C43.0169 16.0114 40.4005 20 39 20M39 20V4" stroke="#77777C" stroke-width="1.5" stroke-linecap="round" stroke-linejoin="round"/>
<path d="M41.9998 26C41.996 34.294 41.8945 38.5406 39.2175 41.2175C36.435 44 31.9567 44 23 44C14.0433 44 9.56497 44 6.78249 41.2175C4 38.435 4 33.9567 4 25C4 16.0433 4 11.565 6.78249 8.78249C9.56497 6 14.0433 6 23 6C23.3397 6 28 6.00015 28 6.00015" stroke="#77777C" stroke-width="1.5" stroke-linecap="round"/>
<path d="M4 28.2709C5.23804 28.0911 6.48968 28.0022 7.74343 28.0053C13.0473 27.8933 18.2213 29.5459 22.3421 32.6684C26.164 35.5643 28.8495 39.5497 30 44" stroke="#77777C" stroke-width="1.5" stroke-linejoin="round"/>
<path d="M42 33.7924C39.6491 32.6017 37.2175 31.9976 34.7724 32.0001C31.069 31.9855 27.403 33.3467 24 36" stroke="#77777C" stroke-width="1.5" stroke-linejoin="round"/>
</svg>
