<svg width="21" height="21" viewBox="0 0 21 21" fill="none" xmlns="http://www.w3.org/2000/svg">
<path d="M5.5 8.5V15.5" stroke="#4D4D51" stroke-width="1.5" stroke-linecap="round" stroke-linejoin="round"/>
<path d="M9.5 11.5V15.5M9.5 11.5C9.5 9.84315 10.8431 8.5 12.5 8.5C14.1569 8.5 15.5 9.84315 15.5 11.5V15.5M9.5 11.5V8.5" stroke="#4D4D51" stroke-width="1.5" stroke-linecap="round" stroke-linejoin="round"/>
<path d="M5.50801 5.5L5.49902 5.5" stroke="#4D4D51" stroke-width="2" stroke-linecap="round" stroke-linejoin="round"/>
<path d="M1 10.5C1 6.02166 1 3.78249 2.39124 2.39124C3.78249 1 6.02166 1 10.5 1C14.9783 1 17.2175 1 18.6088 2.39124C20 3.78249 20 6.02166 20 10.5C20 14.9783 20 17.2175 18.6088 18.6088C17.2175 20 14.9783 20 10.5 20C6.02166 20 3.78249 20 2.39124 18.6088C1 17.2175 1 14.9783 1 10.5Z" stroke="#4D4D51" stroke-width="1.5" stroke-linejoin="round"/>
</svg>
